solid ascii
  facet normal 6.123724e-001 -3.535534e-001 -7.071068e-001
    outer loop
      vertex   5.586236e+001 -3.841452e+001 -1.500000e+001
      vertex   6.119913e+001 -2.917096e+001 -1.500000e+001
      vertex   5.701706e+001 -4.041452e+001 -1.300000e+001
    endloop
  endfacet
  facet normal 6.123724e-001 -3.535534e-001 -7.071068e-001
    outer loop
      vertex   5.701706e+001 -4.041452e+001 -1.300000e+001
      vertex   6.119913e+001 -2.917096e+001 -1.500000e+001
      vertex   6.350853e+001 -2.917096e+001 -1.300000e+001
    endloop
  endfacet
  facet normal 6.123724e-001 3.535534e-001 -7.071068e-001
    outer loop
      vertex   5.336770e+000 6.758548e+001 -1.500000e+001
      vertex   6.491470e+000 6.958548e+001 -1.300000e+001
      vertex   6.119913e+001 -2.917096e+001 -1.500000e+001
    endloop
  endfacet
  facet normal 6.123724e-001 3.535534e-001 -7.071068e-001
    outer loop
      vertex   6.119913e+001 -2.917096e+001 -1.500000e+001
      vertex   6.491470e+000 6.958548e+001 -1.300000e+001
      vertex   6.350853e+001 -2.917096e+001 -1.300000e+001
    endloop
  endfacet
  facet normal 0.000000e+000 7.071068e-001 -7.071068e-001
    outer loop
      vertex   5.336770e+000 6.758548e+001 -1.500000e+001
      vertex   -5.336770e+000 6.758548e+001 -1.500000e+001
      vertex   6.491470e+000 6.958548e+001 -1.300000e+001
    endloop
  endfacet
  facet normal -9.674803e-017 7.071068e-001 -7.071068e-001
    outer loop
      vertex   6.491470e+000 6.958548e+001 -1.300000e+001
      vertex   -5.336770e+000 6.758548e+001 -1.500000e+001
      vertex   -6.491470e+000 6.958548e+001 -1.300000e+001
    endloop
  endfacet
  facet normal -6.123724e-001 3.535534e-001 -7.071068e-001
    outer loop
      vertex   -5.336770e+000 6.758548e+001 -1.500000e+001
      vertex   -6.119913e+001 -2.917096e+001 -1.500000e+001
      vertex   -6.491470e+000 6.958548e+001 -1.300000e+001
    endloop
  endfacet
  facet normal -6.123724e-001 3.535534e-001 -7.071068e-001
    outer loop
      vertex   -6.491470e+000 6.958548e+001 -1.300000e+001
      vertex   -6.119913e+001 -2.917096e+001 -1.500000e+001
      vertex   -6.350853e+001 -2.917096e+001 -1.300000e+001
    endloop
  endfacet
  facet normal -6.123724e-001 -3.535534e-001 -7.071068e-001
    outer loop
      vertex   -6.350853e+001 -2.917096e+001 -1.300000e+001
      vertex   -6.119913e+001 -2.917096e+001 -1.500000e+001
      vertex   -5.701706e+001 -4.041452e+001 -1.300000e+001
    endloop
  endfacet
  facet normal -6.123724e-001 -3.535534e-001 -7.071068e-001
    outer loop
      vertex   -5.701706e+001 -4.041452e+001 -1.300000e+001
      vertex   -6.119913e+001 -2.917096e+001 -1.500000e+001
      vertex   -5.586236e+001 -3.841452e+001 -1.500000e+001
    endloop
  endfacet
  facet normal 1.101490e-017 -7.071068e-001 -7.071068e-001
    outer loop
      vertex   5.701706e+001 -4.041452e+001 -1.300000e+001
      vertex   -5.701706e+001 -4.041452e+001 -1.300000e+001
      vertex   5.586236e+001 -3.841452e+001 -1.500000e+001
    endloop
  endfacet
  facet normal 0.000000e+000 -7.071068e-001 -7.071068e-001
    outer loop
      vertex   5.586236e+001 -3.841452e+001 -1.500000e+001
      vertex   -5.701706e+001 -4.041452e+001 -1.300000e+001
      vertex   -5.586236e+001 -3.841452e+001 -1.500000e+001
    endloop
  endfacet
  facet normal -8.660254e-001 -5.000000e-001 0.000000e+000
    outer loop
      vertex   -6.350853e+001 -2.917096e+001 -1.300000e+001
      vertex   -5.701706e+001 -4.041452e+001 -1.300000e+001
      vertex   -6.350853e+001 -2.917096e+001 1.300000e+001
    endloop
  endfacet
  facet normal -8.660254e-001 -5.000000e-001 0.000000e+000
    outer loop
      vertex   -6.350853e+001 -2.917096e+001 1.300000e+001
      vertex   -5.701706e+001 -4.041452e+001 -1.300000e+001
      vertex   -5.701706e+001 -4.041452e+001 1.300000e+001
    endloop
  endfacet
  facet normal 0.000000e+000 -1.000000e+000 0.000000e+000
    outer loop
      vertex   -5.701706e+001 -4.041452e+001 -1.300000e+001
      vertex   5.701706e+001 -4.041452e+001 -1.300000e+001
      vertex   -5.701706e+001 -4.041452e+001 1.300000e+001
    endloop
  endfacet
  facet normal 0.000000e+000 -1.000000e+000 0.000000e+000
    outer loop
      vertex   -5.701706e+001 -4.041452e+001 1.300000e+001
      vertex   5.701706e+001 -4.041452e+001 -1.300000e+001
      vertex   5.701706e+001 -4.041452e+001 1.300000e+001
    endloop
  endfacet
  facet normal 8.660254e-001 -5.000000e-001 0.000000e+000
    outer loop
      vertex   5.701706e+001 -4.041452e+001 -1.300000e+001
      vertex   6.350853e+001 -2.917096e+001 -1.300000e+001
      vertex   5.701706e+001 -4.041452e+001 1.300000e+001
    endloop
  endfacet
  facet normal 8.660254e-001 -5.000000e-001 0.000000e+000
    outer loop
      vertex   5.701706e+001 -4.041452e+001 1.300000e+001
      vertex   6.350853e+001 -2.917096e+001 -1.300000e+001
      vertex   6.350853e+001 -2.917096e+001 1.300000e+001
    endloop
  endfacet
  facet normal 0.000000e+000 0.000000e+000 -1.000000e+000
    outer loop
      vertex   5.586236e+001 -3.841452e+001 -1.500000e+001
      vertex   -5.586236e+001 -3.841452e+001 -1.500000e+001
      vertex   6.119913e+001 -2.917096e+001 -1.500000e+001
    endloop
  endfacet
  facet normal -0.000000e+000 0.000000e+000 -1.000000e+000
    outer loop
      vertex   6.119913e+001 -2.917096e+001 -1.500000e+001
      vertex   -5.586236e+001 -3.841452e+001 -1.500000e+001
      vertex   -6.119913e+001 -2.917096e+001 -1.500000e+001
    endloop
  endfacet
  facet normal -0.000000e+000 0.000000e+000 -1.000000e+000
    outer loop
      vertex   5.336770e+000 6.758548e+001 -1.500000e+001
      vertex   -6.119913e+001 -2.917096e+001 -1.500000e+001
      vertex   -5.336770e+000 6.758548e+001 -1.500000e+001
    endloop
  endfacet
  facet normal 0.000000e+000 -0.000000e+000 -1.000000e+000
    outer loop
      vertex   5.336770e+000 6.758548e+001 -1.500000e+001
      vertex   6.119913e+001 -2.917096e+001 -1.500000e+001
      vertex   -6.119913e+001 -2.917096e+001 -1.500000e+001
    endloop
  endfacet
  facet normal 6.123724e-001 -3.535534e-001 7.071068e-001
    outer loop
      vertex   6.350853e+001 -2.917096e+001 1.300000e+001
      vertex   6.119913e+001 -2.917096e+001 1.500000e+001
      vertex   5.701706e+001 -4.041452e+001 1.300000e+001
    endloop
  endfacet
  facet normal 6.123724e-001 -3.535534e-001 7.071068e-001
    outer loop
      vertex   5.701706e+001 -4.041452e+001 1.300000e+001
      vertex   6.119913e+001 -2.917096e+001 1.500000e+001
      vertex   5.586236e+001 -3.841452e+001 1.500000e+001
    endloop
  endfacet
  facet normal -4.497032e-017 -7.071068e-001 7.071068e-001
    outer loop
      vertex   5.586236e+001 -3.841452e+001 1.500000e+001
      vertex   -5.586236e+001 -3.841452e+001 1.500000e+001
      vertex   5.701706e+001 -4.041452e+001 1.300000e+001
    endloop
  endfacet
  facet normal -1.101490e-017 -7.071068e-001 7.071068e-001
    outer loop
      vertex   5.701706e+001 -4.041452e+001 1.300000e+001
      vertex   -5.586236e+001 -3.841452e+001 1.500000e+001
      vertex   -5.701706e+001 -4.041452e+001 1.300000e+001
    endloop
  endfacet
  facet normal -6.123724e-001 -3.535534e-001 7.071068e-001
    outer loop
      vertex   -5.586236e+001 -3.841452e+001 1.500000e+001
      vertex   -6.119913e+001 -2.917096e+001 1.500000e+001
      vertex   -5.701706e+001 -4.041452e+001 1.300000e+001
    endloop
  endfacet
  facet normal -6.123724e-001 -3.535534e-001 7.071068e-001
    outer loop
      vertex   -5.701706e+001 -4.041452e+001 1.300000e+001
      vertex   -6.119913e+001 -2.917096e+001 1.500000e+001
      vertex   -6.350853e+001 -2.917096e+001 1.300000e+001
    endloop
  endfacet
  facet normal -6.123724e-001 3.535534e-001 7.071068e-001
    outer loop
      vertex   -5.336770e+000 6.758548e+001 1.500000e+001
      vertex   -6.491470e+000 6.958548e+001 1.300000e+001
      vertex   -6.119913e+001 -2.917096e+001 1.500000e+001
    endloop
  endfacet
  facet normal -6.123724e-001 3.535534e-001 7.071068e-001
    outer loop
      vertex   -6.119913e+001 -2.917096e+001 1.500000e+001
      vertex   -6.491470e+000 6.958548e+001 1.300000e+001
      vertex   -6.350853e+001 -2.917096e+001 1.300000e+001
    endloop
  endfacet
  facet normal -0.000000e+000 7.071068e-001 7.071068e-001
    outer loop
      vertex   -5.336770e+000 6.758548e+001 1.500000e+001
      vertex   5.336770e+000 6.758548e+001 1.500000e+001
      vertex   -6.491470e+000 6.958548e+001 1.300000e+001
    endloop
  endfacet
  facet normal -1.934961e-016 7.071068e-001 7.071068e-001
    outer loop
      vertex   -6.491470e+000 6.958548e+001 1.300000e+001
      vertex   5.336770e+000 6.758548e+001 1.500000e+001
      vertex   6.491470e+000 6.958548e+001 1.300000e+001
    endloop
  endfacet
  facet normal -8.660254e-001 5.000000e-001 0.000000e+000
    outer loop
      vertex   -6.491470e+000 6.958548e+001 -1.300000e+001
      vertex   -6.350853e+001 -2.917096e+001 -1.300000e+001
      vertex   -6.491470e+000 6.958548e+001 1.300000e+001
    endloop
  endfacet
  facet normal -8.660254e-001 5.000000e-001 0.000000e+000
    outer loop
      vertex   -6.491470e+000 6.958548e+001 1.300000e+001
      vertex   -6.350853e+001 -2.917096e+001 -1.300000e+001
      vertex   -6.350853e+001 -2.917096e+001 1.300000e+001
    endloop
  endfacet
  facet normal 0.000000e+000 1.000000e+000 -0.000000e+000
    outer loop
      vertex   6.491470e+000 6.958548e+001 -1.300000e+001
      vertex   -6.491470e+000 6.958548e+001 -1.300000e+001
      vertex   6.491470e+000 6.958548e+001 1.300000e+001
    endloop
  endfacet
  facet normal 0.000000e+000 1.000000e+000 -0.000000e+000
    outer loop
      vertex   6.491470e+000 6.958548e+001 1.300000e+001
      vertex   -6.491470e+000 6.958548e+001 -1.300000e+001
      vertex   -6.491470e+000 6.958548e+001 1.300000e+001
    endloop
  endfacet
  facet normal 6.123724e-001 3.535534e-001 7.071068e-001
    outer loop
      vertex   6.350853e+001 -2.917096e+001 1.300000e+001
      vertex   6.491470e+000 6.958548e+001 1.300000e+001
      vertex   6.119913e+001 -2.917096e+001 1.500000e+001
    endloop
  endfacet
  facet normal 6.123724e-001 3.535534e-001 7.071068e-001
    outer loop
      vertex   6.119913e+001 -2.917096e+001 1.500000e+001
      vertex   6.491470e+000 6.958548e+001 1.300000e+001
      vertex   5.336770e+000 6.758548e+001 1.500000e+001
    endloop
  endfacet
  facet normal -0.000000e+000 -0.000000e+000 1.000000e+000
    outer loop
      vertex   -5.586236e+001 -3.841452e+001 1.500000e+001
      vertex   5.586236e+001 -3.841452e+001 1.500000e+001
      vertex   -6.119913e+001 -2.917096e+001 1.500000e+001
    endloop
  endfacet
  facet normal -0.000000e+000 0.000000e+000 1.000000e+000
    outer loop
      vertex   -6.119913e+001 -2.917096e+001 1.500000e+001
      vertex   5.586236e+001 -3.841452e+001 1.500000e+001
      vertex   6.119913e+001 -2.917096e+001 1.500000e+001
    endloop
  endfacet
  facet normal -0.000000e+000 -0.000000e+000 1.000000e+000
    outer loop
      vertex   -5.336770e+000 6.758548e+001 1.500000e+001
      vertex   6.119913e+001 -2.917096e+001 1.500000e+001
      vertex   5.336770e+000 6.758548e+001 1.500000e+001
    endloop
  endfacet
  facet normal -0.000000e+000 0.000000e+000 1.000000e+000
    outer loop
      vertex   -5.336770e+000 6.758548e+001 1.500000e+001
      vertex   -6.119913e+001 -2.917096e+001 1.500000e+001
      vertex   6.119913e+001 -2.917096e+001 1.500000e+001
    endloop
  endfacet
  facet normal 8.660254e-001 5.000000e-001 0.000000e+000
    outer loop
      vertex   6.350853e+001 -2.917096e+001 -1.300000e+001
      vertex   6.491470e+000 6.958548e+001 -1.300000e+001
      vertex   6.350853e+001 -2.917096e+001 1.300000e+001
    endloop
  endfacet
  facet normal 8.660254e-001 5.000000e-001 -0.000000e+000
    outer loop
      vertex   6.350853e+001 -2.917096e+001 1.300000e+001
      vertex   6.491470e+000 6.958548e+001 -1.300000e+001
      vertex   6.491470e+000 6.958548e+001 1.300000e+001
    endloop
  endfacet
endsolid
