solid ascii
  facet normal 0.000000e+000 0.000000e+000 1.000000e+000
    outer loop
      vertex   1.159401e+002 3.500000e+002 1.068113e+002
      vertex   -1.340599e+002 3.500000e+002 1.068113e+002
      vertex   1.159401e+002 0.000000e+000 1.068113e+002
    endloop
  endfacet
  facet normal 0.000000e+000 0.000000e+000 1.000000e+000
    outer loop
      vertex   1.159401e+002 0.000000e+000 1.068113e+002
      vertex   -1.340599e+002 3.500000e+002 1.068113e+002
      vertex   -1.340599e+002 0.000000e+000 1.068113e+002
    endloop
  endfacet
  facet normal -6.921823e-001 0.000000e+000 7.217227e-001
    outer loop
      vertex   -1.340599e+002 3.500000e+002 1.068113e+002
      vertex   -1.851045e+002 3.500000e+002 5.785596e+001
      vertex   -1.340599e+002 0.000000e+000 1.068113e+002
    endloop
  endfacet
  facet normal -6.921823e-001 0.000000e+000 7.217227e-001
    outer loop
      vertex   -1.340599e+002 0.000000e+000 1.068113e+002
      vertex   -1.851045e+002 3.500000e+002 5.785596e+001
      vertex   -1.851045e+002 0.000000e+000 5.785596e+001
    endloop
  endfacet
  facet normal -1.000000e+000 0.000000e+000 0.000000e+000
    outer loop
      vertex   -1.851045e+002 3.500000e+002 5.785596e+001
      vertex   -1.851045e+002 3.500000e+002 -4.214404e+001
      vertex   -1.851045e+002 0.000000e+000 5.785596e+001
    endloop
  endfacet
  facet normal -1.000000e+000 0.000000e+000 0.000000e+000
    outer loop
      vertex   -1.851045e+002 0.000000e+000 5.785596e+001
      vertex   -1.851045e+002 3.500000e+002 -4.214404e+001
      vertex   -1.851045e+002 0.000000e+000 -4.214404e+001
    endloop
  endfacet
  facet normal -7.217227e-001 0.000000e+000 -6.921823e-001
    outer loop
      vertex   -1.851045e+002 3.500000e+002 -4.214404e+001
      vertex   -1.361491e+002 3.500000e+002 -9.318867e+001
      vertex   -1.851045e+002 0.000000e+000 -4.214404e+001
    endloop
  endfacet
  facet normal -7.217227e-001 0.000000e+000 -6.921823e-001
    outer loop
      vertex   -1.851045e+002 0.000000e+000 -4.214404e+001
      vertex   -1.361491e+002 3.500000e+002 -9.318867e+001
      vertex   -1.361491e+002 0.000000e+000 -9.318867e+001
    endloop
  endfacet
  facet normal 0.000000e+000 0.000000e+000 -1.000000e+000
    outer loop
      vertex   -1.361491e+002 3.500000e+002 -9.318867e+001
      vertex   1.138509e+002 3.500000e+002 -9.318867e+001
      vertex   -1.361491e+002 0.000000e+000 -9.318867e+001
    endloop
  endfacet
  facet normal 0.000000e+000 0.000000e+000 -1.000000e+000
    outer loop
      vertex   -1.361491e+002 0.000000e+000 -9.318867e+001
      vertex   1.138509e+002 3.500000e+002 -9.318867e+001
      vertex   1.138509e+002 0.000000e+000 -9.318867e+001
    endloop
  endfacet
  facet normal 6.921823e-001 0.000000e+000 -7.217227e-001
    outer loop
      vertex   1.138509e+002 3.500000e+002 -9.318867e+001
      vertex   1.648955e+002 3.500000e+002 -4.423331e+001
      vertex   1.138509e+002 0.000000e+000 -9.318867e+001
    endloop
  endfacet
  facet normal 6.921823e-001 0.000000e+000 -7.217227e-001
    outer loop
      vertex   1.138509e+002 0.000000e+000 -9.318867e+001
      vertex   1.648955e+002 3.500000e+002 -4.423331e+001
      vertex   1.648955e+002 0.000000e+000 -4.423331e+001
    endloop
  endfacet
  facet normal 1.000000e+000 0.000000e+000 0.000000e+000
    outer loop
      vertex   1.648955e+002 3.500000e+002 -4.423331e+001
      vertex   1.648955e+002 3.500000e+002 5.576669e+001
      vertex   1.648955e+002 0.000000e+000 -4.423331e+001
    endloop
  endfacet
  facet normal 1.000000e+000 0.000000e+000 0.000000e+000
    outer loop
      vertex   1.648955e+002 0.000000e+000 -4.423331e+001
      vertex   1.648955e+002 3.500000e+002 5.576669e+001
      vertex   1.648955e+002 0.000000e+000 5.576669e+001
    endloop
  endfacet
  facet normal 7.217227e-001 0.000000e+000 6.921823e-001
    outer loop
      vertex   1.648955e+002 3.500000e+002 5.576669e+001
      vertex   1.159401e+002 3.500000e+002 1.068113e+002
      vertex   1.648955e+002 0.000000e+000 5.576669e+001
    endloop
  endfacet
  facet normal 7.217227e-001 0.000000e+000 6.921823e-001
    outer loop
      vertex   1.648955e+002 0.000000e+000 5.576669e+001
      vertex   1.159401e+002 3.500000e+002 1.068113e+002
      vertex   1.159401e+002 0.000000e+000 1.068113e+002
    endloop
  endfacet
  facet normal 0.000000e+000 -1.000000e+000 0.000000e+000
    outer loop
      vertex   1.159401e+002 0.000000e+000 1.068113e+002
      vertex   -1.340599e+002 0.000000e+000 1.068113e+002
      vertex   1.648955e+002 0.000000e+000 5.576669e+001
    endloop
  endfacet
  facet normal 0.000000e+000 -1.000000e+000 0.000000e+000
    outer loop
      vertex   1.648955e+002 0.000000e+000 5.576669e+001
      vertex   -1.340599e+002 0.000000e+000 1.068113e+002
      vertex   -1.851045e+002 0.000000e+000 5.785596e+001
    endloop
  endfacet
  facet normal 0.000000e+000 -1.000000e+000 0.000000e+000
    outer loop
      vertex   -1.851045e+002 0.000000e+000 -4.214404e+001
      vertex   1.648955e+002 0.000000e+000 5.576669e+001
      vertex   -1.851045e+002 0.000000e+000 5.785596e+001
    endloop
  endfacet
  facet normal 0.000000e+000 -1.000000e+000 0.000000e+000
    outer loop
      vertex   -1.851045e+002 0.000000e+000 -4.214404e+001
      vertex   1.648955e+002 0.000000e+000 -4.423331e+001
      vertex   1.648955e+002 0.000000e+000 5.576669e+001
    endloop
  endfacet
  facet normal 0.000000e+000 -1.000000e+000 0.000000e+000
    outer loop
      vertex   -1.851045e+002 0.000000e+000 -4.214404e+001
      vertex   1.138509e+002 0.000000e+000 -9.318867e+001
      vertex   1.648955e+002 0.000000e+000 -4.423331e+001
    endloop
  endfacet
  facet normal 0.000000e+000 -1.000000e+000 0.000000e+000
    outer loop
      vertex   -1.851045e+002 0.000000e+000 -4.214404e+001
      vertex   -1.361491e+002 0.000000e+000 -9.318867e+001
      vertex   1.138509e+002 0.000000e+000 -9.318867e+001
    endloop
  endfacet
  facet normal 0.000000e+000 1.000000e+000 0.000000e+000
    outer loop
      vertex   1.159401e+002 3.500000e+002 1.068113e+002
      vertex   1.648955e+002 3.500000e+002 5.576669e+001
      vertex   -1.340599e+002 3.500000e+002 1.068113e+002
    endloop
  endfacet
  facet normal 0.000000e+000 1.000000e+000 0.000000e+000
    outer loop
      vertex   -1.340599e+002 3.500000e+002 1.068113e+002
      vertex   1.648955e+002 3.500000e+002 5.576669e+001
      vertex   -1.851045e+002 3.500000e+002 5.785596e+001
    endloop
  endfacet
  facet normal 0.000000e+000 1.000000e+000 0.000000e+000
    outer loop
      vertex   -1.851045e+002 3.500000e+002 5.785596e+001
      vertex   1.648955e+002 3.500000e+002 5.576669e+001
      vertex   -1.851045e+002 3.500000e+002 -4.214404e+001
    endloop
  endfacet
  facet normal 0.000000e+000 1.000000e+000 0.000000e+000
    outer loop
      vertex   -1.851045e+002 3.500000e+002 -4.214404e+001
      vertex   1.648955e+002 3.500000e+002 5.576669e+001
      vertex   1.648955e+002 3.500000e+002 -4.423331e+001
    endloop
  endfacet
  facet normal 0.000000e+000 1.000000e+000 0.000000e+000
    outer loop
      vertex   1.138509e+002 3.500000e+002 -9.318867e+001
      vertex   -1.851045e+002 3.500000e+002 -4.214404e+001
      vertex   1.648955e+002 3.500000e+002 -4.423331e+001
    endloop
  endfacet
  facet normal 0.000000e+000 1.000000e+000 0.000000e+000
    outer loop
      vertex   1.138509e+002 3.500000e+002 -9.318867e+001
      vertex   -1.361491e+002 3.500000e+002 -9.318867e+001
      vertex   -1.851045e+002 3.500000e+002 -4.214404e+001
    endloop
  endfacet
endsolid
